<svg xmlns="http://www.w3.org/2000/svg" xmlns:xlink="http://www.w3.org/1999/xlink" version="1.1" id="Your_Icon" x="0px" y="0px" width="81.103px" height="29.306px" viewBox="0 0 81.103 29.306" enable-background="new 0 0 81.103 29.306" xml:space="preserve">
<path d="M78.104,15.681l2.197-6.162H59.205L53.68,3.372L54.861,0H27.392l-1.346,3.744h3.508l5.478,6.094l-5.453,5.843H1.181  L0,18.814l2.936,10.491c0,0,61.82,0,65.412,0c4.855,0,8.776-2.431,10.22-6.644c0.891-2.599,2.535-6.981,2.535-6.981H78.104z   M75.619,15.681h-3.092l1.363-3.823h3.092L75.619,15.681z M34.59,3.744h14.388l5.154,5.735H39.745L34.59,3.744z M61.309,11.858  h4.599l-1.314,3.682l-1.664-1.83l0.024-0.022L61.309,11.858z M67.028,15.681l1.362-3.823h3.017l-1.364,3.823H67.028z"/>
</svg>