<svg xmlns="http://www.w3.org/2000/svg" xmlns:xlink="http://www.w3.org/1999/xlink" version="1.1" id="Layer_1" x="0px" y="0px" width="100px" height="100px" viewBox="0 0 100 100" enable-background="new 0 0 100 100" xml:space="preserve">
<g>
	<path d="M86.761,72.005l-7.643,3.419L67.694,50.101H40.712l-0.313-5.67h19.724v-7.443H39.987l-0.929-16.8   c2.947-1.333,4.996-4.245,4.996-7.631c0-4.646-3.848-8.412-8.594-8.412s-8.594,3.766-8.594,8.412c0,3.284,1.927,6.121,4.731,7.506   l2.074,37.481h29.216l12.497,27.704L89.8,78.799L86.761,72.005z"/>
	<path d="M41.506,86.701c-12.146,0-22.028-9.882-22.028-22.028c0-6.966,3.254-13.183,8.318-17.222l-0.476-8.6   c-9.103,5.021-15.285,14.711-15.285,25.822c0,16.251,13.221,29.472,29.471,29.472c11.054,0,20.699-6.12,25.743-15.146l-4.265-9.453   C60.76,79.354,51.978,86.701,41.506,86.701z"/>
</g>
</svg>