<svg xmlns="http://www.w3.org/2000/svg" xmlns:xlink="http://www.w3.org/1999/xlink" version="1.1" id="Layer_1" x="0px" y="0px" width="100px" height="100px" viewBox="0 0 100 100" enable-background="new 0 0 100 100" xml:space="preserve">
<g id="Layer_1_1_">
</g>
<g id="Layer_2">
	<path d="M50,7.58c-16.01,0-28.99,11.48-28.99,28.99C21.01,61,50,70.83,50,95.83c0-25,28.99-35.35,28.99-59.26   C78.99,20.56,66.01,7.58,50,7.58z M58.48,46.67c-1.82,1.93-5.28,3.41-8.641,3.41c-1.03,0-1.97-0.04-2.77-0.23v9.69h-4.9V32.23   c1.66-0.28,5.3-0.52,8.07-0.52c3.399,0,5.89,0.8,7.47,2.22c1.46,1.26,2.82,4.18,2.82,6.55C60.53,42.9,59.82,45.28,58.48,46.67z    M49.92,24.94l-19.59,6.37v-5.23l19.42-6.36l19.92,6.36v5.23L49.92,24.94z M50.32,35.91c-1.51,0-2.65,0.12-3.25,0.28v9.87   c0.76,0.2,1.71,0.28,2.85,0.28c4.15,0,6.68-2.02,6.68-5.7C56.6,37.12,54.11,35.91,50.32,35.91z"/>
</g>
</svg>