<svg xmlns:dc="http://purl.org/dc/elements/1.1/" xmlns:cc="http://creativecommons.org/ns#" xmlns:rdf="http://www.w3.org/1999/02/22-rdf-syntax-ns#" xmlns:svg="http://www.w3.org/2000/svg" xmlns="http://www.w3.org/2000/svg" xmlns:sodipodi="http://sodipodi.sourceforge.net/DTD/sodipodi-0.dtd" xmlns:inkscape="http://www.inkscape.org/namespaces/inkscape" version="1.1" x="0px" y="0px" width="100px" height="100px" viewBox="0 0 100 100" enable-background="new 0 0 100 100" xml:space="preserve" id="svg2" inkscape:version="0.48.3.1 r9886" sodipodi:docname="tissue.svg"><metadata id="metadata130"><rdf:RDF><cc:Work rdf:about=""><dc:format>image/svg+xml</dc:format><dc:type rdf:resource="http://purl.org/dc/dcmitype/StillImage"/><dc:title/></cc:Work></rdf:RDF></metadata><defs id="defs128">
	
	
	
	
	
	
</defs><sodipodi:namedview pagecolor="#ffffff" bordercolor="#666666" borderopacity="1" objecttolerance="10" gridtolerance="10" guidetolerance="10" inkscape:pageopacity="0" inkscape:pageshadow="2" inkscape:window-width="1317" inkscape:window-height="744" id="namedview126" showgrid="false" inkscape:zoom="4.8984375" inkscape:cx="52.053015" inkscape:cy="55.22647" inkscape:window-x="49" inkscape:window-y="24" inkscape:window-maximized="1" inkscape:current-layer="Captions"/>
<g id="Captions">
	
	
	





	





	




	
	
	
	
	





	
	





	
	





	
	





	





	





	
	
	
	
	
	
	
	
	










<path style="font-size:medium;font-style:normal;font-variant:normal;font-weight:normal;font-stretch:normal;text-indent:0;text-align:start;text-decoration:none;line-height:normal;letter-spacing:normal;word-spacing:normal;text-transform:none;direction:ltr;block-progression:tb;writing-mode:lr-tb;text-anchor:start;baseline-shift:baseline;color:#000000;fill:#000000;fill-opacity:1;stroke:none;stroke-width:18.20412827;marker:none;visibility:visible;display:inline;overflow:visible;enable-background:accumulate;font-family:Sans;-inkscape-font-specification:Sans" d="M 35.9375 20.875 C 27.725893 20.875 20.699312 26.633833 19 34.34375 C 17.910348 37.19842 17.509977 40.584587 17.28125 43.0625 C 16.702542 49.610473 17.077343 59.96717 20.65625 75.53125 L 20.78125 75.5 C 20.78125 75.5 29.569162 77.708651 38.5 79.9375 C 42.965419 81.051925 47.466656 82.165082 50.90625 83.03125 C 51.905994 83.283008 52.574913 83.457341 53.375 83.65625 C 53.3773 83.66642 53.3727 83.67733 53.375 83.6875 L 53.59375 83.75 L 53.6875 83.71875 C 54.145914 83.832938 54.7918 84.000456 55.15625 84.09375 L 55.5625 84.21875 L 56.8125 84.5 L 56.8125 83 L 56.78125 80.53125 L 56.78125 80.40625 C 56.77165 80.40365 56.75942 80.40885 56.75 80.40625 C 54.972264 72.091001 54.262949 65.485747 54.125 60.3125 C 56.618715 60.937297 59.27078 61.595803 61.25 62.09375 C 62.326669 62.364626 63.086781 62.543373 63.90625 62.75 C 65.729995 63.410033 67.670976 63.8125 69.71875 63.8125 C 79.205367 63.8125 86.9375 56.080368 86.9375 46.59375 C 86.9375 38.694286 81.582506 32.013774 74.3125 30 C 74.048136 29.911878 73.964095 29.893952 73.65625 29.8125 C 73.348405 29.731048 72.94562 29.630708 72.4375 29.5 C 71.42126 29.238584 70.01739 28.884178 68.375 28.46875 C 65.09022 27.637894 60.815703 26.565875 56.5625 25.5 C 48.056095 23.368249 39.65625 21.25 39.65625 21.25 L 39.65625 21.28125 C 38.460932 21.01355 37.212234 20.875 35.9375 20.875 z M 35.9375 24.875 C 37.406641 24.875 38.838606 25.124668 40.15625 25.5625 L 49.78125 27.9375 C 52.342638 28.5766 52.671716 28.642723 55.59375 29.375 C 58.022556 29.983672 60.087901 30.495516 62.34375 31.0625 C 57.860336 33.204671 54.447503 37.216234 53.125 42.09375 C 52.955335 42.369446 52.579132 43.030236 52.125 44.25 C 51.555765 45.778921 50.904933 48.115956 50.5 51.375 C 50.358989 52.509906 50.258533 53.814803 50.1875 55.1875 C 50.180161 55.444372 50.163211 55.638865 50.15625 55.875 L 48.28125 55.375 L 47.78125 57.3125 L 50.125 57.90625 C 50.11995 58.364478 50.11568 58.818423 50.125 59.3125 C 50.18109 64.526239 50.788735 71.061828 52.4375 79.28125 C 52.220257 79.2269 52.101483 79.21328 51.875 79.15625 C 48.43007 78.288738 43.93558 77.146027 39.46875 76.03125 C 31.699551 74.092309 25.926568 72.6496 24.0625 72.1875 C 22.84663 65.05732 21.414477 57.360463 21.125 50.3125 L 22.625 50.71875 L 23.125 48.78125 L 21.09375 48.25 C 21.081283 46.589556 21.128165 44.959172 21.28125 43.40625 C 21.28825 43.32713 21.30523 43.265283 21.3125 43.1875 C 21.813382 39.6973 22.423278 37.217834 23.3125 34.3125 C 24.925956 28.846645 29.930788 24.875 35.9375 24.875 z M 69.71875 33.375 C 70.634357 33.375 71.544229 33.44969 72.40625 33.625 C 72.46728 33.64124 72.57094 33.6732 72.625 33.6875 C 78.545277 34.999916 82.9375 40.264835 82.9375 46.59375 C 82.9375 53.918607 77.043607 59.8125 69.71875 59.8125 C 69.064091 59.8125 68.441031 59.71589 67.8125 59.625 C 67.707611 59.5951 67.609321 59.57654 67.4375 59.53125 C 67.133949 59.45123 66.718484 59.346698 66.21875 59.21875 C 65.896704 59.1363 65.330247 59.005305 64.9375 58.90625 C 59.993261 56.999118 56.5 52.229768 56.5 46.59375 C 56.5 39.268893 62.393893 33.375 69.71875 33.375 z M 69.8125 41.625 C 67.213189 41.893566 65.125 44.148793 65.125 46.8125 C 65.125 49.653788 67.471212 52 70.3125 52 C 73.153788 52 75.5 49.653788 75.5 46.8125 C 75.5 43.971212 73.153788 41.625 70.3125 41.625 C 70.134919 41.625 69.985787 41.607096 69.8125 41.625 z M 70.3125 45.625 C 70.992027 45.625 71.5 46.132972 71.5 46.8125 C 71.5 47.492027 70.992027 48 70.3125 48 C 69.632972 48 69.125 47.492027 69.125 46.8125 C 69.125 46.132972 69.632972 45.625 70.3125 45.625 z M 25.0625 49.28125 L 24.5625 51.21875 L 28.4375 52.25 L 28.9375 50.3125 L 25.0625 49.28125 z M 30.875 50.8125 L 30.34375 52.75 L 34.21875 53.75 L 34.75 51.8125 L 30.875 50.8125 z M 36.65625 52.3125 L 36.15625 54.25 L 40.03125 55.28125 L 40.53125 53.34375 L 36.65625 52.3125 z M 42.46875 53.84375 L 41.96875 55.78125 L 45.84375 56.78125 L 46.34375 54.84375 L 42.46875 53.84375 z M 54.25 54.0625 C 54.682099 54.952842 55.17702 55.796616 55.75 56.59375 C 55.199014 56.456127 54.720097 56.3282 54.15625 56.1875 C 54.18301 55.449019 54.20026 54.723891 54.25 54.0625 z " id="path3008"/></g>

</svg>